<?xml version="1.0" standalone="no"?>
<!DOCTYPE svg PUBLIC "-//W3C//DTD SVG 20010904//EN"
 "http://www.w3.org/TR/2001/REC-SVG-20010904/DTD/svg10.dtd">
<svg version="1.0" xmlns="http://www.w3.org/2000/svg"
 width="899.000000pt" height="899.000000pt" viewBox="0 0 899.000000 899.000000"
 preserveAspectRatio="xMidYMid meet">
<metadata>
Created by potrace 1.14, written by Peter Selinger 2001-2017
</metadata>
<g transform="translate(0.000000,899.000000) scale(0.100000,-0.100000)"
fill="#000000" stroke="none">
<path d="M319 5529 c-6 -3 -21 -4 -35 -1 l-24 4 0 -193 0 -194 38 0 c22 0 46
6 54 13 22 18 39 -5 27 -37 -10 -24 -16 -25 -95 -7 -20 4 -21 2 -21 -207 0
-117 4 -220 9 -229 10 -20 40 -23 70 -7 40 21 4 -21 -38 -45 -33 -18 -39 -27
-42 -60 -2 -21 1 -43 7 -49 6 -6 6 -18 -2 -34 -8 -18 -8 -29 0 -42 7 -11 8
-23 3 -32 -5 -8 -9 -89 -8 -180 0 -155 2 -166 19 -162 21 6 20 -24 -2 -37 -10
-7 -15 -39 -17 -127 -4 -110 -2 -120 17 -137 26 -24 27 -36 2 -36 -18 0 -19
-9 -19 -135 l0 -135 302 0 c827 -2 809 -2 828 23 l18 22 0 -22 c0 -19 6 -23
29 -23 24 0 28 3 24 20 -3 11 -1 20 5 20 22 0 42 -13 42 -26 0 -11 21 -14 98
-15 53 -1 106 0 117 2 11 1 30 2 43 2 12 -1 39 -1 60 -1 20 0 54 0 75 -1 22 0
48 4 59 10 12 7 24 7 31 1 17 -14 166 -15 182 -2 10 8 19 8 34 1 39 -22 60
-14 67 26 4 23 2 43 -6 56 -10 17 -10 19 4 14 12 -5 20 1 27 20 7 19 7 29 0
31 -6 2 -11 8 -11 14 0 6 6 8 14 5 9 -4 20 15 36 64 13 38 20 72 16 76 -4 5
-165 9 -357 9 -304 1 -349 0 -349 -13 0 -13 -3 -13 -16 -2 -22 18 -292 20
-310 2 -9 -10 -14 -10 -23 1 -17 20 -488 17 -501 -4 -8 -12 -10 -12 -16 3 -5
13 -10 15 -20 6 -7 -6 -19 -7 -26 -2 -7 4 -39 8 -71 9 -40 1 -63 6 -77 19 -20
18 -21 18 -45 -5 -27 -25 -41 -25 -22 1 16 21 55 41 67 34 6 -3 10 1 10 9 0 9
-9 16 -21 16 -12 0 -17 4 -14 11 4 6 13 8 21 5 16 -6 17 -2 14 149 -2 61 -2
146 -2 190 1 44 2 181 3 305 1 124 -2 240 -5 257 -4 18 -4 37 -1 43 13 21 8
262 -5 270 -9 5 -9 9 -1 14 6 4 11 25 11 47 0 21 3 40 8 40 4 1 38 2 76 3 59
1 70 4 77 21 6 17 8 17 8 3 1 -25 89 -26 98 -1 6 15 7 15 13 -3 6 -17 18 -19
118 -19 74 0 112 4 112 11 0 6 12 16 26 23 22 10 28 8 44 -11 19 -24 76 -32
119 -16 14 5 28 5 35 -1 21 -17 52 6 65 49 9 30 16 39 23 32 8 -8 6 -16 -6
-27 -16 -17 -22 -54 -8 -56 4 -1 110 -2 236 -3 213 -2 229 -1 234 16 2 10 9
18 14 18 5 0 7 -4 3 -9 -3 -5 -1 -13 5 -16 9 -5 351 -9 498 -6 14 1 22 7 22
19 0 9 4 24 9 31 8 12 13 9 28 -17 l18 -31 105 0 c58 0 243 -2 412 -3 199 -2
309 1 311 7 3 6 9 6 18 -1 10 -8 135 -10 408 -9 l394 1 10 22 c10 23 27 30 27
11 0 -5 5 -7 11 -4 6 4 17 -2 25 -14 17 -23 36 -19 32 6 -2 10 7 19 25 24 28
8 28 7 12 -17 -19 -29 -49 -26 268 -26 221 1 251 2 268 18 17 16 19 16 19 1 0
-17 9 -21 45 -18 41 3 73 3 203 -1 112 -3 135 -2 142 11 5 9 4 23 -1 33 -8 15
-5 18 21 18 35 0 37 -4 10 -32 -11 -12 -19 -23 -17 -24 1 -1 89 -4 195 -6 142
-3 196 -1 203 8 7 8 6 14 -3 17 -10 4 -10 6 1 6 8 1 19 -6 25 -15 7 -10 26
-15 51 -14 68 2 93 5 101 13 11 11 36 9 29 -3 -3 -5 -3 -10 2 -10 11 -1 364
-1 391 -1 18 1 22 7 22 30 0 28 4 30 38 22 2 -1 -4 -8 -12 -17 -19 -19 -20
-30 -3 -36 6 -3 199 -3 427 -1 228 1 426 2 440 1 105 -6 152 -1 162 15 5 10
13 15 18 12 5 -3 18 -1 28 4 26 14 72 21 72 12 0 -5 -21 -14 -46 -20 -26 -7
-44 -14 -41 -17 8 -8 247 -8 254 0 3 3 13 2 22 -3 9 -5 36 -7 61 -5 74 7 83 7
135 1 28 -3 69 -1 93 4 24 5 49 6 55 2 7 -4 97 -8 200 -8 150 -1 190 -4 197
-15 5 -8 7 -18 4 -22 -4 -6 -5 -608 -2 -898 0 -25 -1 -141 -2 -257 -3 -169 -6
-213 -17 -214 -7 -1 -31 -3 -53 -4 -22 -1 -43 -3 -48 -4 -8 -1 -8 -299 1 -307
9 -9 71 -13 202 -14 223 -2 257 -1 249 11 -6 10 -14 102 -12 134 6 105 3 797
-3 801 -5 3 -5 13 1 23 10 20 10 501 0 501 -3 0 -11 -5 -18 -12 -9 -9 -12 -8
-12 6 0 10 9 20 20 23 18 5 19 14 18 157 -1 83 -5 162 -10 175 -5 14 -4 28 1
35 8 9 9 166 2 209 -2 11 -191 9 -191 -3 0 -5 -4 -10 -10 -10 -5 0 -10 6 -10
13 0 11 -64 13 -345 13 -331 -1 -345 -2 -359 -21 -14 -20 -15 -20 -13 0 2 19
-4 20 -213 21 -118 0 -219 -1 -223 -4 -5 -2 2 -15 14 -28 12 -13 20 -26 17
-30 -6 -5 -19 6 -42 41 -13 18 -27 19 -171 20 -143 1 -158 -1 -167 -18 -9 -18
-10 -18 -23 0 -13 19 -27 20 -312 17 -164 -1 -305 -3 -313 -3 -8 0 -104 0
-213 1 -188 0 -200 -1 -228 -21 -29 -21 -40 -16 -17 7 7 7 10 13 8 13 -3 1
-310 3 -683 4 -563 2 -681 0 -692 -11 -18 -18 -25 -18 -47 2 -16 16 -18 16
-24 0 -3 -9 -12 -16 -20 -16 -7 0 -11 6 -8 13 3 10 -123 12 -648 11 -359 -1
-656 -2 -660 -3 -5 0 -8 -8 -8 -16 0 -21 -17 -19 -22 3 -7 24 -54 22 -73 -4
-14 -19 -14 -19 -29 1 -12 18 -25 21 -81 20 -52 -1 -69 -5 -77 -18 -12 -22
-24 -22 -31 2 -5 19 -15 19 -288 15 -202 -3 -285 -7 -290 -16 -5 -8 -13 -8
-31 3 -28 18 -251 20 -283 2 -16 -9 -25 -8 -39 2 -23 17 -46 9 -40 -13 4 -13
1 -12 -13 4 -14 15 -28 20 -53 18 -44 -4 -104 -4 -200 0 -41 2 -90 -1 -108 -6
-24 -7 -37 -6 -47 2 -12 10 -15 9 -15 -6 -1 -18 -1 -18 -16 1 -15 20 -15 20
-30 1 -8 -11 -14 -24 -14 -29 0 -6 -11 2 -25 17 -16 18 -31 25 -47 22 -13 -3
-29 -5 -37 -5 -7 -1 -11 -7 -8 -16 4 -8 2 -17 -3 -20 -6 -4 -10 1 -10 9 0 15
-24 25 -60 25 -8 0 -24 1 -34 3 -13 2 -27 -8 -42 -30 l-23 -33 -3 33 -3 33
-125 0 c-117 1 -170 -8 -170 -26 0 -5 -7 -6 -15 -3 -8 4 -12 10 -9 15 3 5 2 9
-3 10 -39 4 -337 3 -344 -2z m1791 -90 c10 -18 8 -19 -14 -13 -19 4 -24 2 -23
-13 1 -11 -5 -18 -16 -18 -17 0 -28 -15 -57 -77 -7 -15 -26 -32 -43 -38 l-30
-10 19 21 c22 25 26 86 5 94 -10 4 -11 8 -1 20 8 10 17 12 29 5 32 -17 61 -7
82 27 22 35 32 35 49 2z m3636 -226 c-7 -7 -26 7 -26 19 0 6 6 6 15 -2 9 -7
13 -15 11 -17z m-5121 -1486 c1 -1 6 -14 13 -30 10 -23 16 -26 37 -21 31 8 32
-7 4 -48 -18 -24 -19 -32 -8 -38 14 -9 -19 -26 -74 -37 -15 -3 -32 -14 -38
-25 -18 -33 -20 -13 -3 27 l15 37 -26 -6 c-22 -6 -26 -4 -23 11 3 14 11 17 38
15 19 -2 53 3 75 11 38 13 39 14 17 26 -12 6 -22 18 -22 25 0 8 -6 19 -14 25
-11 9 -20 6 -44 -14 -30 -25 -62 -33 -62 -15 0 6 9 10 20 10 11 0 23 7 25 15
3 8 7 22 10 31 4 12 12 14 33 9 15 -4 27 -7 27 -8z"/>
<path d="M7730 4970 c0 -38 19 -288 26 -345 4 -27 8 -84 9 -124 1 -42 7 -77
12 -78 6 -2 9 -12 6 -21 -4 -15 5 -17 77 -16 75 0 84 2 101 25 14 18 18 39 17
82 0 32 -5 60 -10 63 -5 3 -2 11 6 17 11 9 17 40 22 117 3 58 8 123 10 145 2
22 6 67 9 100 l4 61 -145 0 -144 0 0 -26z"/>
<path d="M3333 4912 c-61 -2 -73 -6 -74 -20 0 -9 -2 -30 -3 -46 -1 -16 4 -30
12 -34 9 -3 10 -7 3 -11 -9 -6 -16 -219 -11 -321 1 -18 1 -308 0 -367 l-1 -42
88 2 c78 2 88 4 85 20 -3 21 6 21 32 2 11 -8 23 -15 27 -15 10 0 5 323 -5 339
-5 7 -5 16 0 20 5 3 9 110 9 236 l0 230 -36 1 c-20 1 -40 3 -45 5 -5 2 -42 3
-81 1z"/>
<path d="M3633 4912 c-31 -2 -53 -8 -53 -14 0 -7 27 -92 60 -190 33 -97 60
-183 60 -191 0 -7 9 -30 20 -51 10 -22 17 -42 15 -46 -8 -13 26 -93 48 -111
16 -14 19 -21 10 -27 -10 -6 -6 -30 18 -103 18 -51 34 -96 36 -98 8 -10 68 -9
80 1 7 5 18 6 25 1 7 -4 51 -8 98 -8 l85 0 36 105 c20 58 40 113 44 124 7 16
5 17 -25 11 -25 -5 -31 -4 -28 6 3 9 17 13 36 12 29 -2 32 1 38 35 4 20 10 39
13 42 4 3 29 70 55 150 27 80 64 187 82 239 19 51 32 97 29 101 -3 4 -67 8
-144 8 l-138 1 -51 -202 c-36 -145 -47 -204 -38 -210 8 -5 6 -11 -6 -20 -9 -7
-20 -25 -23 -39 -6 -22 -3 -26 27 -32 28 -6 30 -8 16 -17 -12 -7 -24 -6 -36 0
-15 8 -24 5 -42 -14 -27 -29 -53 -33 -48 -8 2 10 12 18 23 18 17 0 20 6 18 35
-1 19 -3 41 -4 47 -3 14 -30 25 -49 21 -7 -2 -15 3 -17 10 -3 7 5 12 21 12 33
0 34 25 6 118 -19 64 -28 102 -29 129 -1 7 -10 21 -22 32 -13 12 -17 21 -10
26 17 10 13 33 -9 55 -11 11 -20 23 -20 28 0 4 -26 8 -57 9 -32 1 -67 4 -78 5
-11 2 -44 2 -72 0z"/>
<path d="M5466 4911 c-3 -4 -50 -6 -106 -4 l-100 4 0 -40 c0 -22 5 -43 10 -46
8 -5 7 -11 -1 -21 -9 -11 -12 -108 -13 -373 l-1 -358 119 1 120 1 3 42 c1 23
-2 45 -7 48 -6 4 -7 14 -2 23 5 9 8 42 7 72 -2 69 9 86 41 65 13 -8 33 -15 45
-15 16 0 19 -3 11 -13 -15 -18 43 -107 69 -107 22 0 39 -32 21 -38 -19 -6 -14
-40 6 -38 11 1 17 -6 16 -19 0 -19 7 -20 128 -22 117 -2 127 -1 120 15 -13 29
-43 95 -64 137 -20 41 -27 55 -66 117 -21 33 -22 40 -9 58 7 11 16 17 19 15
11 -11 57 55 51 73 -5 14 -3 15 8 4 19 -18 39 54 39 146 0 57 -4 76 -19 91
-12 12 -15 23 -10 33 14 26 -31 75 -100 108 -35 17 -66 29 -69 26 -2 -3 -13
-1 -22 4 -19 10 -74 12 -145 7 -22 -2 -52 0 -67 4 -15 4 -30 4 -32 0z m140
-175 c69 -6 91 -38 85 -121 -3 -35 -23 -64 -50 -72 -22 -7 -88 -9 -138 -4 -7
1 -10 15 -8 38 4 49 -2 62 -26 56 -13 -4 -19 0 -19 11 0 9 6 13 15 10 18 -7
31 26 34 85 1 7 7 11 16 7 10 -3 15 1 15 12 1 16 2 16 14 -1 9 -12 31 -19 62
-21z"/>
<path d="M6217 4905 c-15 -8 -27 -10 -27 -6 0 4 -27 8 -60 8 l-61 0 1 -76 c1
-98 1 -244 1 -301 -3 -234 -1 -361 5 -395 4 -22 7 -45 6 -51 -1 -7 15 -10 45
-7 27 1 53 2 58 2 6 -1 125 -2 265 -4 l255 -3 0 95 0 94 -206 -3 c-136 -2
-205 0 -201 7 3 5 7 32 8 60 1 27 2 56 3 63 1 9 40 12 161 12 119 0 162 3 165
13 3 6 6 45 8 85 3 73 -6 101 -18 62 -9 -27 -23 -25 -21 2 1 22 -1 23 -119 23
-66 0 -137 -2 -157 -6 -21 -3 -38 -2 -38 2 0 5 5 9 10 9 6 0 10 27 10 60 0 47
3 60 15 60 9 0 15 9 16 23 l0 22 9 -22 c8 -20 17 -23 62 -24 135 -2 281 0 286
5 3 3 6 47 6 97 1 100 -5 111 -51 90 -16 -8 -29 -8 -37 -2 -12 10 -28 11 -235
12 -69 0 -127 2 -131 4 -3 2 -18 -2 -33 -10z"/>
<path d="M936 4895 c-3 -8 -1 -17 4 -20 5 -3 3 -16 -4 -30 -18 -34 -16 -301 2
-297 10 2 9 -3 -1 -20 -11 -18 -14 -69 -13 -238 l1 -215 225 1 c124 0 237 3
251 6 91 21 228 132 213 172 -2 6 6 16 18 21 32 15 59 103 64 209 3 81 2 90
-18 108 -16 13 -19 21 -11 29 17 17 -5 58 -34 65 -19 5 -21 9 -12 26 8 15 5
26 -17 56 -35 47 -45 53 -67 48 -13 -3 -17 0 -13 10 12 30 -113 73 -232 79
-78 4 -85 3 -103 -18 -10 -12 -18 -17 -19 -11 0 5 5 15 10 20 7 7 -29 11 -114
12 -98 1 -125 -2 -130 -13z m365 -178 c12 -3 22 0 26 9 8 21 22 17 16 -5 -3
-13 3 -25 19 -35 45 -30 69 -88 72 -178 5 -121 -28 -193 -104 -233 -22 -11
-93 -19 -152 -16 -14 1 -16 23 -16 220 0 121 -3 224 -7 230 -6 11 3 12 73 15
15 1 31 8 37 16 8 13 10 13 13 -1 2 -10 12 -19 23 -22z"/>
<path d="M1826 4862 c-4 -32 -2 -48 6 -54 10 -6 10 -10 2 -15 -15 -10 -16
-522 -1 -540 6 -8 6 -18 0 -25 -5 -7 -9 -44 -9 -83 l1 -70 89 -1 c113 -2 141
5 142 37 0 16 5 23 15 20 8 -3 26 -4 42 -3 36 2 35 -12 -3 -28 -16 -7 -30 -16
-30 -20 0 -10 376 -7 386 3 5 4 2 12 -6 17 -10 7 -11 10 -2 10 8 0 12 22 12
75 l0 75 -157 -1 c-87 0 -162 -4 -168 -9 -5 -4 -26 -3 -45 4 l-35 11 0 65 c0
65 0 65 30 68 17 2 35 10 41 18 10 12 13 12 24 -1 18 -22 80 -20 80 2 0 16 1
16 13 0 12 -17 40 -21 120 -18 35 1 37 3 37 35 0 19 -6 36 -12 39 -10 4 -10 7
0 18 20 21 14 49 -13 61 -19 8 -22 14 -13 20 18 11 -7 11 -244 8 -61 -1 -76
12 -71 62 7 68 3 66 109 67 62 1 102 5 112 13 12 10 16 10 19 1 3 -9 30 -13
88 -13 l84 0 -2 98 -2 97 -72 2 c-53 1 -73 -3 -77 -13 -7 -18 -26 -18 -26 0 0
18 -311 17 -318 -1 -2 -8 5 -13 17 -13 20 0 28 -19 15 -33 -11 -10 -44 13 -54
37 -7 19 -16 23 -63 24 l-54 1 -7 -47z"/>
<path d="M2594 4898 c-3 -5 3 -12 13 -14 24 -7 27 -41 5 -48 -14 -5 -17 -20
-16 -100 1 -52 4 -106 8 -120 3 -14 3 -26 -2 -26 -4 0 -6 -28 -4 -62 2 -35 3
-70 3 -78 -6 -178 -5 -267 2 -277 4 -6 5 -20 0 -30 -5 -10 -8 -25 -7 -33 1 -8
2 -20 3 -25 1 -12 371 -16 371 -3 0 4 10 4 23 -1 12 -4 33 -6 47 -4 35 5 49 5
93 -1 l37 -4 0 95 0 95 -158 -3 c-86 -2 -162 0 -169 4 -6 4 -10 15 -8 25 1 9
-2 22 -7 29 -5 7 -6 17 -2 24 4 7 7 62 6 123 0 147 0 148 -12 141 -5 -3 -10
-2 -10 4 0 5 5 11 11 13 14 5 18 108 4 109 -55 4 -77 24 -27 24 l37 0 -1 75 0
75 -117 1 c-65 1 -120 -3 -123 -8z"/>
<path d="M4499 4888 c-1 -32 -1 -425 0 -471 1 -23 5 -36 11 -32 6 3 10 0 10
-8 0 -8 -7 -17 -15 -21 -8 -3 -12 -12 -9 -21 3 -8 10 -12 15 -9 5 3 9 -2 9
-11 0 -9 -4 -13 -10 -10 -5 3 -10 -1 -10 -9 0 -9 6 -16 14 -16 7 0 19 -6 25
-14 9 -11 8 -15 -6 -20 -10 -4 -19 -2 -21 3 -2 6 -7 11 -10 11 -5 0 -7 -136
-3 -181 1 -4 143 -7 317 -7 l315 0 -2 93 -3 92 -195 1 -196 1 -1 66 c-2 79
-14 74 194 72 146 -2 152 -1 153 18 0 11 1 54 2 96 l2 76 -177 -3 c-177 -2
-178 -2 -178 20 0 12 -6 28 -12 34 -10 10 -10 14 -1 20 7 4 14 19 17 32 2 15
9 24 17 21 14 -3 178 -2 269 2 25 1 57 -1 72 -5 28 -7 34 1 39 52 5 55 -2 90
-18 90 -17 1 -17 1 0 11 9 5 17 18 17 28 0 17 -15 18 -227 18 -207 -1 -224 -2
-193 -15 31 -13 33 -15 15 -22 -14 -6 -27 -1 -46 16 -34 33 -92 33 -106 2
l-10 -23 -7 23 c-5 15 -15 22 -32 22 -18 0 -24 -6 -25 -22z"/>
<path d="M6829 4891 c-1 -9 0 -20 1 -26 2 -5 2 -178 1 -382 -1 -229 2 -373 8
-373 5 0 12 -8 16 -18 5 -17 16 -19 103 -17 53 1 105 5 115 9 9 5 17 4 17 -1
0 -4 42 -8 94 -8 88 0 95 2 115 25 17 21 22 23 30 10 8 -12 17 -11 60 9 88 42
166 136 200 241 15 48 20 152 8 168 -6 8 -5 17 4 29 12 14 12 16 -1 11 -12 -4
-15 4 -16 36 0 22 -11 60 -22 83 -49 94 -188 203 -262 203 -16 0 -30 4 -30 10
0 6 -81 9 -220 8 -195 -1 -220 -3 -221 -17z m403 -184 c38 -14 98 -82 98 -113
0 -8 4 -13 9 -9 5 3 12 1 16 -5 3 -5 1 -10 -4 -10 -7 0 -11 -29 -10 -78 1 -90
-14 -135 -65 -189 -33 -36 -36 -37 -120 -41 -79 -4 -86 -3 -87 14 0 11 0 62 0
115 l-1 96 -40 1 c-54 2 -63 12 -11 12 45 0 60 18 43 50 -6 11 -7 28 -1 42 11
29 11 29 11 83 l0 45 63 0 c34 0 79 -6 99 -13z"/>
<path d="M7810 4297 c-38 -30 -70 -80 -70 -109 0 -42 37 -103 75 -124 62 -33
144 -3 180 66 14 29 12 63 -6 69 -8 2 -8 5 1 11 16 10 -11 62 -44 84 -30 19
-114 21 -136 3z"/>
<path d="M3258 3781 c-12 -17 -16 -17 -32 -5 -16 12 -23 10 -50 -8 -40 -28
-46 -37 -46 -70 0 -16 -4 -28 -10 -28 -17 0 -11 -86 9 -134 21 -48 51 -69 114
-81 25 -5 37 -4 37 4 0 7 9 9 25 5 14 -3 25 -2 25 4 0 5 12 12 28 15 16 4 37
20 51 42 42 62 27 209 -23 228 -8 3 -17 1 -20 -6 -2 -7 -8 -2 -11 10 -4 12
-17 25 -29 28 -11 4 -28 9 -38 11 -9 3 -22 -4 -30 -15z m40 -95 c8 -5 20 -22
27 -38 15 -38 -4 -84 -42 -99 -37 -14 -39 -12 -58 37 -9 25 -27 54 -38 65 -14
13 -18 22 -11 29 8 8 15 6 24 -4 11 -14 15 -14 36 3 25 20 39 21 62 7z"/>
<path d="M3841 3784 c-80 -25 -121 -81 -121 -164 0 -54 16 -94 46 -121 32 -27
104 -50 136 -43 26 5 29 10 26 36 l-5 29 25 -26 c23 -26 25 -26 44 -8 67 60
74 200 14 258 -13 13 -72 41 -101 48 -11 3 -40 -1 -64 -9z m97 -130 c22 -45
22 -47 5 -67 -10 -11 -33 -26 -51 -34 -27 -11 -31 -17 -22 -28 17 -21 -5 -27
-24 -6 -13 14 -14 20 -4 23 10 4 9 13 -5 44 -24 54 -15 87 27 104 40 16 52 10
74 -36z"/>
<path d="M7923 3789 c-78 -16 -124 -86 -118 -181 4 -82 28 -117 95 -141 55
-20 118 -18 105 3 -3 6 3 10 14 10 12 0 21 -4 21 -10 0 -5 11 -10 25 -10 19 0
26 7 33 33 9 33 9 118 -1 134 -3 4 -32 8 -64 8 l-58 -1 -3 -33 c-2 -23 2 -37
15 -47 22 -16 3 -18 -30 -3 -33 15 -51 50 -45 88 5 33 -1 38 -20 19 -9 -9 -12
-7 -12 8 0 27 10 36 25 24 9 -7 21 -7 40 0 21 8 33 7 51 -5 26 -17 60 -9 84
20 13 16 10 21 -27 54 -43 38 -66 44 -130 30z"/>
<path d="M2524 3780 c-11 -4 -33 -55 -65 -151 -27 -79 -49 -150 -49 -156 0 -9
17 -13 54 -13 48 0 55 3 61 23 3 12 11 32 17 44 11 22 12 22 40 6 15 -10 28
-25 28 -35 0 -24 30 -38 80 -38 40 0 42 1 36 25 -11 45 -25 75 -35 75 -6 0 -8
7 -5 15 4 8 1 15 -5 15 -6 0 -8 7 -5 15 6 15 -22 113 -37 130 -5 5 -9 17 -9
27 0 10 -3 18 -7 19 -35 4 -85 3 -99 -1z"/>
<path d="M2892 3779 c-30 -11 -54 -50 -41 -65 6 -7 8 -22 4 -34 -11 -35 3 -54
70 -90 36 -19 65 -38 65 -41 0 -4 -13 -5 -30 -4 -22 2 -30 -2 -30 -14 -1 -12
-6 -10 -24 10 -19 22 -25 24 -40 14 -12 -10 -16 -24 -14 -52 l3 -38 97 0 c113
0 127 9 128 83 0 56 -15 86 -37 73 -12 -6 -26 1 -55 33 -22 22 -38 43 -36 46
4 7 38 5 63 -3 15 -5 23 0 33 20 25 56 13 67 -74 69 -34 0 -71 -3 -82 -7z"/>
<path d="M3500 3783 c-13 -3 -15 -29 -16 -164 l-1 -160 66 3 c60 3 66 5 69 26
3 19 6 21 18 11 8 -6 14 -18 14 -25 0 -17 24 -18 38 -1 5 6 9 25 8 42 -2 30
-3 30 -64 32 -59 1 -67 -3 -63 -29 0 -5 -6 -8 -14 -8 -9 0 -15 9 -15 24 0 14
7 31 15 40 17 17 22 146 5 146 -6 0 -6 9 1 26 5 15 8 29 5 31 -6 6 -48 10 -66
6z"/>
<path d="M4233 3782 c-9 -6 -13 -43 -14 -116 -1 -103 -2 -108 -25 -118 -36
-17 -34 -75 2 -88 37 -14 92 -2 110 24 20 32 21 136 1 151 -14 10 -14 12 0 21
10 6 15 25 15 63 -1 29 -3 56 -7 59 -9 9 -69 12 -82 4z"/>
<path d="M4439 3767 c-38 -25 -89 -119 -83 -151 12 -63 18 -77 48 -109 78 -83
212 -70 266 26 30 53 30 114 -2 174 -29 57 -62 76 -140 80 -44 2 -63 -2 -89
-20z m133 -89 c14 -23 9 -96 -8 -113 -24 -23 -66 -15 -80 15 -25 53 -24 65 2
93 26 29 69 31 86 5z"/>
<path d="M4738 3779 c-6 -4 -9 -52 -7 -125 4 -107 7 -122 29 -152 33 -44 88
-59 150 -40 38 12 48 21 66 58 17 37 21 61 19 147 -1 57 -5 106 -9 110 -3 4
-22 7 -42 8 -47 3 -55 -16 -50 -117 4 -94 -5 -128 -33 -128 -26 0 -33 35 -32
150 l1 95 -41 0 c-22 0 -45 -3 -51 -6z"/>
<path d="M5046 3781 c-6 -11 0 -276 7 -297 6 -17 16 -22 47 -22 22 0 41 3 41
9 1 5 3 14 4 19 1 6 3 22 4 38 1 26 2 25 31 -18 28 -42 33 -45 75 -46 25 -1
48 2 50 7 3 4 -3 26 -15 48 -25 50 -25 60 2 110 21 39 21 41 3 86 -12 32 -26
50 -44 57 -28 12 -199 19 -205 9z m145 -81 c15 -9 17 -15 9 -30 -11 -21 -45
-26 -70 -10 -12 7 -12 12 4 29 22 24 29 25 57 11z m-31 -100 c-6 -11 -18 -20
-27 -20 -14 0 -14 2 2 20 10 11 22 20 27 20 5 0 4 -9 -2 -20z"/>
<path d="M5383 3782 c-18 -2 -34 -9 -34 -15 -1 -7 -2 -44 -3 -84 -1 -53 2 -69
11 -62 7 7 13 6 17 0 4 -5 -1 -14 -10 -19 -12 -7 -16 -25 -17 -73 l-2 -64 50
0 50 0 -3 88 c-1 58 1 86 8 82 5 -3 10 -14 10 -23 0 -9 10 -47 22 -84 l22 -68
73 0 c71 0 73 1 63 20 -6 11 -8 25 -4 31 11 19 10 230 -1 253 -10 19 -30 24
-73 17 -4 0 -8 -37 -7 -81 1 -44 -2 -77 -6 -72 -4 4 -16 40 -29 80 -12 39 -25
73 -28 73 -18 4 -81 4 -109 1z"/>
<path d="M5788 3782 c-23 -4 -98 -205 -110 -292 -3 -22 1 -24 32 -26 22 -1 39
5 47 15 11 14 12 14 13 1 0 -8 8 1 17 20 9 19 18 36 19 38 1 2 13 0 28 -4 18
-4 28 -15 34 -38 8 -30 10 -31 65 -32 33 0 57 4 57 10 0 13 -61 179 -70 189
-3 4 -12 -5 -19 -20 -27 -58 -40 -78 -52 -82 -7 -2 -10 2 -6 11 3 9 -1 25 -9
36 -19 27 -15 75 6 66 43 -18 84 -6 73 22 -4 10 -9 11 -17 5 -16 -13 -37 1
-27 18 5 7 12 13 17 12 9 0 8 38 -1 47 -5 6 -75 9 -97 4z"/>
<path d="M6035 3776 c-11 -8 -15 -36 -17 -110 -1 -83 1 -100 15 -108 21 -11
23 -42 2 -34 -12 4 -15 -3 -15 -29 l0 -35 105 0 105 0 -3 43 -2 42 -45 -1
c-25 0 -58 -4 -75 -8 -26 -6 -28 -5 -14 6 12 10 16 35 16 126 0 61 -3 113 -6
113 -28 6 -53 4 -66 -5z"/>
<path d="M6281 3782 c-14 -5 -15 -212 -1 -212 6 0 10 -7 10 -15 0 -8 -4 -15
-10 -15 -5 0 -10 -17 -10 -38 l0 -38 43 0 42 1 0 157 1 156 -32 4 c-17 2 -37
2 -43 0z"/>
<path d="M6411 3770 c-4 -8 -6 -48 -6 -88 2 -54 7 -77 20 -92 15 -17 16 -20 3
-20 -12 0 -17 -13 -20 -51 -3 -55 10 -72 42 -51 10 6 22 7 31 1 25 -16 27 -10
25 75 -1 83 6 101 18 51 4 -14 16 -51 27 -81 l21 -55 71 3 72 3 1 157 c1 150
0 157 -20 162 -11 3 -31 0 -46 -7 -21 -10 -26 -20 -28 -60 -2 -27 2 -55 9 -63
9 -11 9 -14 -1 -14 -9 0 -9 -4 -2 -13 6 -7 7 -18 3 -25 -4 -7 -19 25 -36 80
-15 51 -30 95 -31 97 -2 2 -35 4 -75 5 -54 1 -73 -3 -78 -14z"/>
<path d="M6853 3780 c-12 -5 -24 -18 -28 -29 -3 -11 -15 -23 -26 -26 -41 -13
-60 -99 -38 -166 28 -81 87 -110 207 -102 49 4 82 10 83 17 2 45 0 149 -4 153
-7 6 -107 10 -108 3 -6 -33 -4 -66 3 -71 22 -14 -9 -16 -40 -4 -30 13 -32 17
-32 68 0 73 16 86 73 66 36 -13 46 -13 70 -2 30 16 34 38 12 70 -21 30 -84 42
-97 19 -8 -15 -11 -15 -24 -1 -17 17 -20 17 -51 5z"/>
<path d="M7210 3730 c0 -37 5 -60 13 -63 9 -4 9 -8 -2 -15 -18 -13 -22 -120
-4 -126 18 -7 16 -26 -2 -26 -8 0 -15 -3 -15 -7 1 -22 19 -31 60 -29 45 1 45
1 42 34 -1 18 2 40 7 49 6 12 14 5 36 -36 28 -50 29 -51 76 -51 26 0 50 4 53
9 3 4 -7 31 -22 59 -23 43 -25 54 -14 69 23 34 24 44 6 59 -18 14 -18 14 1 12
17 -3 20 2 17 32 -1 21 -12 45 -26 59 -22 21 -34 24 -125 27 l-101 3 0 -59z
m157 -64 c-2 -6 -17 -11 -33 -11 -34 0 -43 24 -18 50 17 17 19 16 36 -5 10
-13 17 -28 15 -34z"/>
<path d="M7524 3778 c-4 -6 -7 -79 -7 -162 l0 -151 44 0 44 0 -3 46 c-3 44 -2
46 32 56 22 7 38 7 44 1 11 -11 45 4 70 29 8 8 16 40 19 71 4 53 3 59 -26 86
-29 27 -36 29 -121 32 -55 1 -93 -2 -96 -8z m145 -87 c8 -14 5 -23 -10 -40
-28 -30 -43 -22 -47 22 -3 34 -1 37 22 37 14 0 30 -8 35 -19z"/>
</g>
</svg>
